<?xml version="1.0" standalone="no"?>
<!DOCTYPE svg PUBLIC "-//W3C//DTD SVG 20010904//EN"
 "http://www.w3.org/TR/2001/REC-SVG-20010904/DTD/svg10.dtd">
<svg version="1.0" xmlns="http://www.w3.org/2000/svg"
 width="340.000000pt" height="340.000000pt" viewBox="0 0 340.000000 340.000000"
 preserveAspectRatio="xMidYMid meet">
<metadata>
Created by potrace 1.14, written by Peter Selinger 2001-2017
</metadata>
<g transform="translate(0.000000,340.000000) scale(0.100000,-0.100000)"
fill="#000000" stroke="none">
<path d="M1527 2983 c-15 -14 -6 -51 22 -89 15 -21 34 -56 41 -77 13 -43 79
-321 76 -324 -1 -1 -17 -5 -36 -8 -19 -3 -85 -14 -147 -25 -62 -11 -129 -22
-150 -25 -33 -4 -137 -19 -213 -30 -49 -7 -106 -14 -160 -20 -207 -20 -250
-29 -250 -50 0 -17 36 -52 61 -60 9 -3 23 -20 30 -38 21 -48 17 -280 -6 -410
-3 -15 -9 -53 -15 -85 -16 -90 -18 -101 -35 -161 -50 -172 -139 -367 -229
-496 -59 -85 -57 -106 7 -66 32 20 159 144 196 192 60 78 170 352 196 491 2
11 6 27 9 36 3 9 7 28 10 42 17 88 26 139 30 165 9 56 26 180 31 225 8 64 10
79 17 85 8 8 33 12 127 20 47 4 92 8 101 10 9 2 41 6 71 10 30 3 81 10 114 15
33 5 87 12 120 15 33 4 80 11 104 16 24 5 47 6 51 2 4 -4 22 -69 40 -143 81
-340 194 -696 274 -873 l36 -78 -50 -72 c-28 -40 -62 -87 -77 -104 -19 -24
-22 -33 -11 -33 21 0 106 46 149 80 l35 28 32 -61 c155 -300 290 -483 425
-576 97 -66 170 -87 201 -55 22 22 20 59 -9 144 -36 106 -58 232 -70 405 -17
238 -32 226 -81 -65 -22 -127 -36 -170 -57 -170 -42 0 -201 215 -308 414 l-37
70 40 59 c49 72 110 194 153 307 18 47 47 114 64 150 19 40 28 73 25 85 -15
48 -84 96 -163 114 -50 11 -64 -5 -52 -60 13 -62 0 -149 -44 -292 -37 -122
-71 -207 -84 -207 -12 0 -104 239 -154 400 -72 230 -151 560 -135 560 3 0 30
5 59 10 30 6 65 13 79 15 139 26 239 59 254 84 15 24 -7 54 -57 77 -72 32
-105 32 -240 -5 -66 -18 -120 -31 -122 -29 -5 6 -15 117 -21 243 -7 173 -10
180 -91 205 -63 19 -163 27 -176 13z"/>
<path d="M1970 2983 c0 -5 14 -22 31 -39 17 -16 69 -75 116 -131 46 -56 97
-112 113 -123 59 -42 102 -18 116 67 16 101 -25 140 -206 198 -94 29 -170 42
-170 28z"/>
<path d="M1364 2056 c-88 -32 -191 -60 -264 -71 -55 -9 -70 -15 -70 -30 0 -21
84 -56 137 -56 50 -1 438 95 461 113 22 19 13 36 -28 52 -78 31 -136 29 -236
-8z"/>
<path d="M1494 1780 c-27 -9 -59 -22 -70 -28 -32 -17 -172 -51 -235 -58 -31
-3 -75 0 -98 6 -43 11 -81 6 -81 -11 0 -6 13 -27 29 -47 36 -46 45 -75 70
-230 26 -157 57 -214 96 -176 8 9 15 24 15 35 0 16 8 19 53 20 28 0 61 2 72 4
45 8 104 15 175 21 79 7 98 18 75 45 -13 14 -12 24 9 85 28 84 61 149 92 187
51 61 19 105 -112 151 -36 12 -46 12 -90 -4z m-3 -132 c3 -41 -6 -120 -26
-215 -5 -24 -22 -29 -145 -47 -25 -4 -57 -9 -71 -12 l-26 -5 -12 98 c-7 54
-14 110 -17 126 -4 25 -2 27 28 28 18 0 40 2 48 4 45 10 79 16 115 21 22 4 42
8 44 10 10 10 61 3 62 -8z"/>
<path d="M1590 1158 c0 -8 11 -25 25 -38 14 -13 51 -62 82 -109 109 -164 146
-201 184 -181 41 23 57 115 29 170 -24 47 -71 83 -167 127 -89 41 -153 54
-153 31z"/>
<path d="M1170 1145 c0 -3 29 -54 65 -115 79 -132 131 -192 163 -183 34 8 46
31 45 82 -2 64 -24 113 -64 143 -56 41 -209 95 -209 73z"/>
<path d="M835 1028 c-10 -24 -36 -72 -59 -108 -95 -155 -108 -201 -75 -267 17
-32 37 -36 78 -16 46 23 96 120 118 232 15 75 15 83 -3 137 -10 32 -24 59 -30
61 -5 2 -18 -16 -29 -39z"/>
<path d="M980 1034 c0 -22 68 -222 96 -280 40 -86 99 -143 199 -190 90 -43
107 -46 240 -50 124 -4 199 11 278 54 102 55 96 100 -25 184 -42 29 -99 74
-128 101 -45 41 -81 62 -66 39 14 -23 45 -168 40 -188 -8 -30 -83 -56 -168
-58 -193 -6 -336 109 -376 299 -8 38 -19 61 -37 75 -25 19 -53 27 -53 14z"/>
</g>
</svg>
